PathFileType	4	(X/Y/Z)	s03c0401.trc
DataRate	CameraRate	NumFrames	NumMarkers	Units	OrigDataRate	OrigDataStartFrame	OrigNumFrames
200	200	4	52	mm	200	1000	2000
Frame#	Time	racr			lacr			c7			jug			rlel			rdr			llel			ldr			s2			lic			ric			lasi			rasi			rpsi			lpsi			rgt			lgt			rth1			rth2			rth3			rth4			rlfc			rmfc			rsh1			rsh2			rsh3			rsh4			rlmal			rmmal			rcal			rtoe			rmt5			rmt1			lth1			lth2			lth4			lth3			llfc			lmfc			lsh1			lsh2			lsh3			lsh4			llmal			lmmal			lcal			ltoe			lmt1			lmt5			SBIKE			LBIKE			RBIKE			
		X1	Y1	Z1	X2	Y2	Z2	X3	Y3	Z3	X4	Y4	Z4	X5	Y5	Z5	X6	Y6	Z6	X7	Y7	Z7	X8	Y8	Z8	X9	Y9	Z9	X10	Y10	Z10	X11	Y11	Z11	X12	Y12	Z12	X13	Y13	Z13	X14	Y14	Z14	X15	Y15	Z15	X16	Y16	Z16	X17	Y17	Z17	X18	Y18	Z18	X19	Y19	Z19	X20	Y20	Z20	X21	Y21	Z21	X22	Y22	Z22	X23	Y23	Z23	X24	Y24	Z24	X25	Y25	Z25	X26	Y26	Z26	X27	Y27	Z27	X28	Y28	Z28	X29	Y29	Z29	X30	Y30	Z30	X31	Y31	Z31	X32	Y32	Z32	X33	Y33	Z33	X34	Y34	Z34	X35	Y35	Z35	X36	Y36	Z36	X37	Y37	Z37	X38	Y38	Z38	X39	Y39	Z39	X40	Y40	Z40	X41	Y41	Z41	X42	Y42	Z42	X43	Y43	Z43	X44	Y44	Z44	X45	Y45	Z45	X46	Y46	Z46	X47	Y47	Z47	X48	Y48	Z48	X49	Y49	Z49	X50	Y50	Z50	X51	Y51	Z51	X52	Y52	Z52	
1000	5.0000	788.699517	1412.335585	-90.805585	753.027447	1419.625806	-418.131802	718.463205	1513.060025	-244.581848	710.748062	1338.762336	-246.679987	634.237651	1213.720541	87.025237	748.510721	983.682105	-14.977762	625.358676	1214.552918	-587.772070	733.401346	979.107384	-470.193080	171.037885	1276.790369	-192.585719	330.057995	1306.918618	-387.939158	361.187240	1277.205675	-25.743319	353.405553	1234.887109	-348.301854	378.463823	1208.810504	-78.290413	209.825252	1318.606549	-143.932842	203.520030	1327.113504	-226.673686	273.611307	1159.227717	-18.329537	287.797663	1220.001277	-410.000866	294.949269	1006.582037	-7.635571	335.383758	927.640910	-8.997326	333.984602	842.591768	-21.413778	370.569219	936.517870	-15.721673	347.410644	718.858788	-57.020664	352.475976	701.474129	-171.774475	286.817392	565.022726	-25.697209	280.714274	476.205832	-37.400102	231.172305	403.084312	-38.240577	309.989599	468.398698	-61.701167	182.290101	286.950571	-55.544123	199.570026	289.143313	-138.190311	109.768042	286.370319	-85.127373	359.036248	102.273768	-122.641273	257.551851	150.558180	-39.279178	281.976600	163.532584	-152.905395	393.759999	1118.305055	-446.450568	470.612231	1078.996889	-457.308596	495.999099	1102.775401	-442.407629	517.458380	1003.780765	-467.263799	616.693566	912.520942	-461.581640	624.541528	890.996700	-330.341288	476.626559	810.354074	-472.224157	424.992366	746.706351	-448.298970	340.896763	713.368101	-439.427580	445.474063	724.232755	-425.252456	236.826262	647.124719	-416.357798	273.915025	642.127278	-327.306809	157.474028	651.649421	-367.312099	388.146689	446.032944	-356.374121	312.678590	504.902238	-317.351797	285.033665	504.678325	-432.708873	-216.710295	944.912957	-233.032612	-11.846480	80.974975	-435.462279	-11.885689	80.762172	-34.906538	
1001	5.0050	789.677902	1412.296571	-93.797211	752.334634	1419.536180	-420.222470	718.710620	1513.076911	-247.193505	710.101501	1338.622916	-248.885272	636.040611	1214.152920	85.104611	748.731506	983.339614	-15.452820	625.412547	1213.896914	-589.080489	734.290864	979.256348	-469.069832	171.162381	1278.518066	-192.431721	328.728912	1309.277899	-388.233498	362.258083	1278.099731	-26.188857	352.482515	1237.110957	-348.885524	379.053422	1210.536942	-79.168709	210.293224	1320.224151	-143.661225	203.412073	1328.948549	-225.419912	274.027163	1160.502277	-18.723836	287.239673	1222.138610	-410.613211	294.387766	1008.096613	-7.902163	334.364481	929.002925	-8.929047	332.525793	843.885750	-21.209972	369.548657	937.590726	-15.931398	345.053756	720.040664	-56.748598	349.941772	702.167981	-172.047235	282.708701	566.864059	-25.246710	275.609798	478.258244	-36.839219	225.342906	405.631359	-37.273142	304.835215	470.134130	-61.056662	172.241761	288.146926	-55.692603	192.886779	291.814550	-136.914497	102.991355	290.834306	-84.009630	347.763937	101.372599	-122.584341	247.476848	151.557663	-38.916559	272.195878	164.516563	-152.474661	393.357113	1119.697526	-445.570620	470.352921	1081.142991	-456.201084	495.759096	1105.560005	-442.184334	518.332944	1006.252806	-464.705245	619.828863	917.558378	-459.367414	628.903880	896.516344	-327.120793	481.770719	812.846548	-470.652980	430.979229	748.419999	-447.086329	347.362201	713.803574	-438.617715	451.718342	726.146746	-423.928702	244.240569	645.313318	-415.993246	281.735007	641.036461	-327.041304	164.379754	647.999133	-367.157397	399.091618	447.701588	-357.388219	322.704386	504.631182	-317.409694	295.277999	504.147004	-432.929697	-216.749835	944.908471	-233.169302	-11.846617	80.975952	-435.448764	-11.925889	80.811293	-34.950632	
1002	5.0100	790.648155	1412.146017	-96.784503	751.531236	1419.476738	-422.871972	719.066927	1512.987271	-249.749953	709.545610	1338.324126	-251.132838	637.864893	1214.387936	83.054790	748.969288	982.967094	-15.861748	625.543561	1213.232949	-590.375844	734.222127	979.573119	-468.813189	171.169078	1280.555865	-192.503796	327.419264	1311.747783	-388.526838	363.118378	1279.131013	-26.714579	351.563415	1239.403650	-349.469694	379.711680	1211.346331	-80.054589	210.645584	1322.217829	-143.392751	203.590239	1331.038797	-226.176775	274.311678	1162.075353	-19.094197	286.836086	1224.474429	-411.192493	294.228384	1009.841216	-8.261709	333.777727	930.518164	-9.039353	331.875506	845.415411	-21.185428	369.323371	939.211091	-16.270519	343.458425	721.232658	-56.246391	348.874168	703.065534	-172.092673	279.344710	569.137457	-24.854444	271.279250	480.748660	-36.209962	219.804809	408.712898	-36.329473	300.432454	472.323870	-60.243356	165.291118	291.911099	-54.527197	186.407119	295.188911	-135.729810	95.696939	296.019612	-82.973790	336.710499	101.511492	-122.315280	237.400414	153.470723	-38.599174	262.384827	166.211930	-152.053127	393.071609	1121.314741	-444.589551	470.153455	1083.362776	-455.017027	495.964197	1108.505515	-441.859325	518.985365	1008.795741	-463.036734	622.432868	922.262571	-457.019356	631.796222	901.240686	-325.483956	486.423024	814.988448	-468.815331	436.541975	749.619546	-445.832594	353.406806	713.673271	-437.705712	457.531938	727.628292	-422.705863	251.217236	642.671919	-415.692494	288.439626	639.121969	-326.594325	170.944073	643.492299	-367.090938	410.226563	448.527819	-357.901956	332.384646	503.821366	-317.240090	305.373959	502.810081	-432.806770	-216.803122	944.947094	-233.286806	-11.861933	81.012448	-435.499920	-11.926526	80.806467	-34.966764	
1003	5.0150	792.090198	1411.924777	-98.795468	750.842575	1419.131670	-424.906027	719.522100	1512.753761	-252.183605	709.073145	1337.973748	-253.440293	639.567628	1214.538331	81.017882	749.258348	982.605440	-16.179318	625.528275	1212.458717	-591.742530	734.143194	979.844280	-468.583725	171.400834	1282.962435	-192.559800	326.233725	1314.351750	-388.863118	363.830614	1280.489833	-27.286702	350.757534	1241.746306	-350.148107	379.937015	1213.305093	-80.846841	211.024933	1324.209523	-143.509344	203.821332	1333.434595	-226.650907	274.513323	1163.819196	-19.482444	286.668613	1226.819883	-411.772999	294.521210	1011.752296	-8.765810	334.089851	932.444961	-9.365298	332.106992	847.372973	-21.270708	369.674454	940.982964	-16.805855	343.191739	722.573367	-55.988192	349.082571	704.405970	-171.987519	276.636520	571.812321	-24.490350	267.061879	483.636961	-35.817250	214.511318	412.409136	-35.508138	296.068948	474.720049	-59.849890	158.085792	296.501456	-53.844654	180.064910	299.271601	-134.783278	88.730014	301.623235	-82.864012	325.945310	102.929701	-121.755674	227.475028	156.574462	-38.305939	252.560510	168.528872	-151.879052	392.866289	1122.829646	-443.875679	470.207804	1085.434464	-453.985599	495.815142	1110.820209	-441.031635	519.304037	1011.219629	-462.208704	624.441523	926.282757	-454.719103	634.257575	905.127785	-322.806972	490.518103	816.663310	-466.844654	441.584577	750.283318	-444.629588	359.043697	712.994927	-436.885625	462.889103	728.439957	-421.576868	257.807890	639.100547	-415.463554	294.612498	636.347300	-326.107202	177.039626	638.090129	-366.909899	421.253108	448.954627	-357.158036	341.696302	502.247416	-316.706751	314.872923	500.068130	-431.408073	-216.860349	944.988979	-233.409119	-11.873037	81.031509	-435.518102	-11.960139	80.896567	-34.991002	
